<?xml version="1.0" ?><!DOCTYPE svg  PUBLIC '-//W3C//DTD SVG 1.1//EN'  'http://www.w3.org/Graphics/SVG/1.1/DTD/svg11.dtd'><svg enable-background="new 0 0 128 128" height="128px" id="Layer_1" version="1.1" viewBox="0 0 128 128" width="128px" xml:space="preserve" xmlns="http://www.w3.org/2000/svg" xmlns:xlink="http://www.w3.org/1999/xlink"><path d="M40,59.9c-3.4,0-5.5-0.1-5.5-0.1c-0.6,0-1-0.5-0.9-1.1c0-0.6,0.5-0.9,1.1-0.9c0.3,0,33.2,2.1,45.1-10.9  c0.2-0.2,0.6-0.4,0.9-0.3c0.3,0,0.6,0.2,0.8,0.5c2.8,5.6,11.4,8,11.5,8c0.5,0.1,0.8,0.7,0.7,1.2c-0.1,0.5-0.7,0.8-1.2,0.7  c-0.4-0.1-8.5-2.4-12.1-7.9c-5.5,5.2-14.6,8.6-27.3,10.1C48,59.7,43.4,59.9,40,59.9z" fill="#2C3E50"/><path d="M86.9,25.8c-5.8-6.4-15.3-9.5-25.2-9.5c-17.4,0-35.8,9.6-35.8,27.6c0,5.8,1.4,21.2,1.4,21.2s-0.2,0-0.6,0  c-1.5,0-5.1,0.7-4.9,7.5c0.3,8.5,4.7,15.4,6.9,16.2c0.5,0.2,0.9,0.3,1.3,0.3c1.2,0,1.6-0.8,1.6-0.8s5.1,13.4,9.3,19.2  c4.4,6.1,12.2,9.7,22.7,9.7c9.5,0,16.1-3.1,21.8-9.7c3.1-3.6,6.1-9.7,8-14.1c-2.1,1.5-4.1,2.7-6.2,3.8c-1.5,2.9-3.2,5.8-4.8,7.6  c-5.1,5.8-10.7,8.3-18.8,8.3c-8.8,0-15.7-2.9-19.4-8c-3.2-4.4-7.4-14.6-8.8-18.2l-3.2-8.5l-2.8,5.6c-1.4-2.1-3.3-6.4-3.5-11.5  c-0.1-2,0.3-3,0.6-3.3c0.1-0.1,0.2-0.1,0.3-0.1l5.5,1.6l-0.9-5.9c0-0.2-1.4-15.3-1.4-20.8c0-8.8,5.2-14.3,9.6-17.4  c5.9-4,14-6.5,22.2-6.5c0,0,0,0,0,0c9.5,0,17.5,3.1,22.2,8.3l1.1,1.2l1.6,0.2c2,0.2,4.3,1.7,6.3,4.2c2.8,3.4,4.4,7.6,4.2,9.6  c-0.6,5.8-1.3,20.7-1.4,21.4l-0.3,5.6l2.4-0.7c0.1-0.6,0.2-1.2,0.4-1.7c0,0,0,0,0,0c0.4-1.7,0.9-3.1,1.6-4.2  c0.2-3.8,0.8-15.1,1.3-19.9C101.6,38.1,94.8,26.5,86.9,25.8z" fill="#2C3E50"/><path d="M106.8,64.2c0.7-2.6,1.6-6.7,2-11.5c0.9-11-2.2-20.5-7.2-27.6C94.2,14.9,80,9.7,63.5,9.7  c-18.5,0-31.6,5.1-39.1,15.2c-11.4,15.5-4.9,36.8-4.6,37.7c0.3,1.1,1.4,1.6,2.5,1.3c1.1-0.3,1.6-1.5,1.3-2.5  c-0.1-0.2-6.2-20.3,4-34.2c6.6-9,18.7-12.9,35.8-13.5c13.9-0.5,28.2,4.6,34.7,13.8c8.8,12.4,6.2,29.9,4.5,36.2  c-2.5,1.2-2.9,6.2-4,12c-0.4,1.9-0.8,3.8-1.1,5.4c-9.2,12-23.4,15.4-27.8,15.6c-0.8-2.6-3.3-4.5-6.2-4.5c-3.6,0-6.5,2.9-6.5,6.5  c0,3.6,2.9,6.5,6.5,6.5c2.9,0,5.3-1.9,6.2-4.5c4.4-0.2,17.5-3.5,27.6-13.3c0.4,1,1.1,1.7,2.5,1.9c4.5,0.9,9.3-4.2,10.8-11.3  C111.7,71.9,110.1,66.3,106.8,64.2z M63.6,101.1c-1.4,0-2.5-1.1-2.5-2.5s1.1-2.5,2.5-2.5c1.4,0,2.5,1.1,2.5,2.5S65,101.1,63.6,101.1  z M106.6,77.2c-1,5.1-3.9,8-5.6,8.2c0-1.3,0.6-3.8,1-5.7c0.2-1,0.5-2.1,0.7-3.2c0.2-1.1,0.4-2.2,0.6-3.3c0.3-1.9,0.8-4.4,1.3-5.6  c0.7,0.4,1.3,1.2,1.7,2.3C107,71.9,107.2,74.6,106.6,77.2z" fill="#3B97D3"/></svg>