<?xml version="1.0" ?><!DOCTYPE svg  PUBLIC '-//W3C//DTD SVG 1.1//EN'  'http://www.w3.org/Graphics/SVG/1.1/DTD/svg11.dtd'><svg enable-background="new 0 0 128 128" height="128px" id="Layer_1" version="1.1" viewBox="0 0 128 128" width="128px" xml:space="preserve" xmlns="http://www.w3.org/2000/svg" xmlns:xlink="http://www.w3.org/1999/xlink"><path d="M110.3,40.3c0-0.1,0.1-0.1,0.1-0.2c0,0,0.1-0.1,0.1-0.2c0-0.1,0.1-0.1,0.1-0.2c0-0.1,0.1-0.1,0.1-0.2  c0-0.1,0-0.1,0.1-0.2c0-0.1,0-0.1,0-0.2c0-0.1,0-0.1,0-0.2c0-0.1,0-0.1,0-0.2c0,0,0,0,0-0.1l-0.8-10.6c0,0,0-0.1,0-0.1  c0-0.1,0-0.1,0-0.2c0-0.1,0-0.1-0.1-0.2c0-0.1,0-0.1-0.1-0.2c0-0.1-0.1-0.1-0.1-0.2c0-0.1-0.1-0.1-0.1-0.2c0-0.1-0.1-0.1-0.1-0.2  c0,0,0-0.1-0.1-0.1L98.3,16c0,0-0.1,0-0.1-0.1c-0.1,0-0.1-0.1-0.2-0.1c-0.1,0-0.1-0.1-0.2-0.1c-0.1,0-0.1-0.1-0.2-0.1  c-0.1,0-0.1,0-0.2-0.1c-0.1,0-0.1,0-0.2-0.1c-0.1,0-0.1,0-0.2,0c0,0-0.1,0-0.1,0l-10.5-0.5c0,0,0,0-0.1,0c-0.1,0-0.1,0-0.2,0  c-0.1,0-0.1,0-0.2,0c-0.1,0-0.1,0-0.2,0.1c-0.1,0-0.1,0-0.2,0.1c-0.1,0-0.1,0.1-0.2,0.1c-0.1,0-0.1,0.1-0.2,0.1  c-0.1,0-0.1,0.1-0.1,0.1c-0.1,0-0.1,0.1-0.2,0.1c0,0,0,0,0,0L26,75.6c-0.8,0.8-0.8,2.1,0,2.8c0.8,0.8,2.1,0.8,2.8,0l49.9-50.9  l8.9,0.4l10.1,9.9l0.7,8.9L48.5,97.6c-0.8,0.8-0.8,2.1,0,2.8c0.8,0.8,2.1,0.8,2.8,0L110.3,40.3C110.3,40.3,110.3,40.3,110.3,40.3z   M101.7,36.8c0,0,0-0.1,0-0.1c0-0.1,0-0.1,0-0.2c0-0.1,0-0.1-0.1-0.2c0-0.1,0-0.1-0.1-0.2c0-0.1-0.1-0.1-0.1-0.2  c0-0.1-0.1-0.1-0.1-0.1c0-0.1-0.1-0.1-0.1-0.2c0,0,0-0.1-0.1-0.1L89.9,24.6c0,0-0.1-0.1-0.1-0.1c-0.1,0-0.1-0.1-0.2-0.1  c-0.1,0-0.1-0.1-0.2-0.1c-0.1,0-0.1-0.1-0.2-0.1c-0.1,0-0.1,0-0.2-0.1c-0.1,0-0.1,0-0.2-0.1c-0.1,0-0.1,0-0.2,0c0,0-0.1,0-0.1,0  l-6.1-0.3l4.6-4.8l8.9,0.4l10.1,9.9l0.7,8.9l-4.7,4.8L101.7,36.8z" fill="#2C3E50"/><path d="M35.5,84.9l51.2-52.2c0.4-0.4,0.4-1,0-1.4c-0.4-0.4-1-0.4-1.4,0L34.1,83.5c-0.4,0.4-0.4,1,0,1.4  C34.5,85.3,35.1,85.3,35.5,84.9z" fill="#3B97D3"/><path d="M43.6,92.8l51.2-52.2c0.4-0.4,0.4-1,0-1.4s-1-0.4-1.4,0L42.1,91.4c-0.4,0.4-0.4,1,0,1.4  C42.5,93.2,43.2,93.2,43.6,92.8z" fill="#3B97D3"/><path d="M47.3,103.3c-0.3-1.1-1.3-1.7-2.4-1.5l-16.1,4l-7.6-7.4l3.6-16.2c0.2-1.1-0.4-2.1-1.5-2.4  c-1.1-0.2-2.1,0.4-2.4,1.5l-6.6,29.2c0,0,0,0,0,0c0,0.2,0,0.3,0,0.5c0,0,0,0,0,0c0,0.1,0,0.2,0.1,0.4c0,0,0,0,0,0  c0,0.1,0.1,0.2,0.1,0.3c0,0,0,0.1,0.1,0.1c0.1,0.1,0.2,0.3,0.3,0.4c0,0,0,0,0,0c0,0,0,0,0,0c0,0,0,0,0,0c0,0,0,0,0,0  c0.1,0.1,0.2,0.2,0.4,0.3c0,0,0.1,0,0.2,0.1c0.1,0.1,0.2,0.1,0.3,0.1c0,0,0,0,0,0c0.1,0,0.3,0,0.4,0c0,0,0,0,0,0  c0.2,0,0.3,0,0.5-0.1c0,0,0,0,0,0l29.1-7.2C46.9,105.5,47.5,104.4,47.3,103.3z M24.1,107l-5.3,1.3L20,103L24.1,107z" fill="#2C3E50"/><path d="M111.9,84.6L90.6,63.3l-2.8,2.9l21.3,21.3c2.3,2.3,2.3,6.1,0,8.5l-12.7,12.7c-2.3,2.3-6.1,2.3-8.5,0  l-5.2-5.2l7.7-7.7c0.4-0.4,0.4-1,0-1.4s-1-0.4-1.4,0l-7.7,7.7l-7.9-7.9l7.8-7.8c0.4-0.4,0.4-1,0-1.4s-1-0.4-1.4,0L72,92.7l-5.2-5.2  L64,90.4l21,21c3.9,3.9,10.3,3.9,14.1,0l12.7-12.7C115.8,94.8,115.8,88.5,111.9,84.6z" fill="#3B97D3"/><path d="M38.9,59.6l-5.7-5.7c0,0,0,0,0,0l8.4-8.4c0.4-0.4,0.4-1,0-1.4s-1-0.4-1.4,0l-8.4,8.4c0,0,0,0,0,0l-7.9-7.9  c0,0,0,0,0,0l7.7-7.7c0.4-0.4,0.4-1,0-1.4s-1-0.4-1.4,0l-7.7,7.7c0,0,0,0,0,0l-4.5-4.5c-2.3-2.3-2.3-6.1,0-8.5l12.7-12.7  c2.3-2.3,6.1-2.3,8.5,0l20.8,20.8l2.8-2.9L41.9,14.6c-3.9-3.9-10.3-3.9-14.1,0L15.1,27.3c-3.9,3.9-3.9,10.3,0,14.1l21,21L38.9,59.6z  " fill="#3B97D3"/></svg>