<?xml version="1.0" ?><!DOCTYPE svg  PUBLIC '-//W3C//DTD SVG 1.1//EN'  'http://www.w3.org/Graphics/SVG/1.1/DTD/svg11.dtd'><svg enable-background="new 0 0 128 128" height="128px" id="Layer_1" version="1.1" viewBox="0 0 128 128" width="128px" xml:space="preserve" xmlns="http://www.w3.org/2000/svg" xmlns:xlink="http://www.w3.org/1999/xlink"><path d="M47.9,85.1L23.2,63.8c-0.8-0.7-0.9-2-0.2-2.8c0.7-0.8,2-0.9,2.8-0.2l25.1,21.7L47.9,85.1z" fill="#2C3E50"/><path d="M81,85.1l-3-2.7l24.8-21.7c0.8-0.7,2.1-0.6,2.8,0.2c0.7,0.8,0.6,2.1-0.2,2.8L81,85.1z" fill="#2C3E50"/><path d="M105,110.5c-0.7,0.8-2,0.9-2.8,0.2L64.5,77.7l-38.2,33c-0.8,0.7-2.1,0.6-2.8-0.2c-0.7-0.8-0.6-2.1,0.2-2.8  l39.5-34.1c0.4-0.3,0.8-0.5,1.3-0.5c0.5,0,0.9,0.2,1.3,0.5c0,0,0,0,0,0l39,34.1C105.7,108.4,105.7,109.7,105,110.5z" fill="#2C3E50"/><path d="M112.5,52.4c-0.1-0.1-0.1-0.2-0.3-0.3l0,0c-0.4-0.4-0.9-0.8-1.4-1.2l-6.9-6v5.3l4.2,3.7l0.1,0.1l0.1,0.1  c0.3,0.2,0.6,0.5,0.8,0.7l0.1,0.1l0.1,0.1c1,1.1,1.5,2.5,1.5,3.9v51c0,3.3-2.7,6-6,6H25c-3.3,0-6-2.7-6-6V59c0-1.5,0.6-3,1.7-4.1  l0.1-0.1l0.1-0.1l0,0l0,0c0.1-0.1,0.3-0.3,0.4-0.4l0.1-0.1l0.1-0.1l4.6-4v-5.3l-7.2,6.3c-0.2,0.2-0.5,0.4-0.7,0.6L18,51.8  c0,0,0,0,0,0C18,51.9,17.9,52,17.9,52c0,0-0.1,0.1-0.1,0.1C16,54,15,56.4,15,59v51c0,5.5,4.5,10,10,10h80c5.5,0,10-4.5,10-10V59  C115,56.5,114.1,54.2,112.5,52.4z" fill="#2C3E50"/><path d="M57.2,23l7.8-6.8l7.8,6.8h6.1L66.5,12.1c0,0,0,0,0,0c-0.4-0.4-0.9-0.6-1.5-0.6c-0.5,0-1.1,0.2-1.5,0.6  L51.1,23H57.2z" fill="#2C3E50"/><path d="M32,63.5v-29c0-3.3,3.2-5.5,6.5-5.5h54c3.3,0,5.5,2.2,5.5,5.5v27.7l3.4-2.9c0.2-0.2,0.6-0.3,0.6-0.5V34.5  c0-5.5-4-9.5-9.5-9.5h-54C33,25,28,29,28,34.5V60L32,63.5z" fill="#3B97D3"/><path d="M81.7,49.1c0,7.7-2.5,10.9-7.1,10.9c-3.8,0-4.9-2.1-4.9-2.1S66.7,60,64.2,60c-4.5,0-6.9-2.5-6.9-9.2  c0-6,1.7-9.2,7-9.2c1.4,0,3.4,0.9,3.4,0.9V42h4.9v6.6c0,6.7,0.2,7.3,1.8,7.3c1.5,0,2.2-1.3,2.2-6.8v-0.3c0-7.9-3.5-11.2-11.3-11.2  c-8,0-12.2,4.8-12.2,12.9c0,8.9,3.3,13,12.2,13c1.8,0,5.3-0.3,5.3-0.3l0.2,4.3c0,0-3.3,0.4-5.4,0.4c-10.9,0-17.1-4-17.1-17.3  c0-11.7,7-17.2,17.1-17.2c10.9,0,16.2,5.5,16.2,15.6V49.1z M68,54.7c-0.2-1.1-0.2-2.5-0.2-3.9v-4.5c0,0-1.5-0.4-2.2-0.4  c-2.7,0-3.1,1.4-3.1,4.8c0,3.3,0.7,4.9,2.3,4.9C65.8,55.7,67.1,55.1,68,54.7z" fill="#3B97D3"/></svg>