<?xml version="1.0" ?><!DOCTYPE svg  PUBLIC '-//W3C//DTD SVG 1.1//EN'  'http://www.w3.org/Graphics/SVG/1.1/DTD/svg11.dtd'><svg enable-background="new 0 0 128 128" height="128px" id="Layer_1" version="1.1" viewBox="0 0 128 128" width="128px" xml:space="preserve" xmlns="http://www.w3.org/2000/svg" xmlns:xlink="http://www.w3.org/1999/xlink"><path d="M65.5,64.7h-1.8c-1,0-1.8,0.8-1.8,1.8v1.2c0,0.7,0.4,1.3,1,1.6l-0.8,9.8H67l-0.8-9.8c0.6-0.3,1-0.9,1-1.6  v-1.2C67.3,65.5,66.5,64.7,65.5,64.7L65.5,64.7z" fill="#3B97D3"/><path d="M64.9,30.7L64.9,30.7c2.9,0,8,0.8,9.1,6.1c1.1,5.4-1.4,14.3-3.5,17.5c-2.8,4.1-4,4.1-5,4.1  c-1.7,0-3.1-0.6-5.6-3.7c-1.8-2.4-4.9-10.8-4.1-16.9C56.5,32.8,59.1,30.7,64.9,30.7 M64.9,26.7c-4.5,0-11.8,1-13,10.5  C51,44.6,54.3,54,56.8,57.1c2.8,3.5,5.2,5.3,8.7,5.3c3.2,0,5.3-1.5,8.3-5.8c2.7-3.9,5.6-13.9,4.1-20.6C76.2,28,68.6,26.7,64.9,26.7  L64.9,26.7z" fill="#3B97D3"/><path d="M65.6,99.2l-1,0.7l-0.9-0.6c-2.8,0-5.6-0.3-8.3-0.9l9.2,6.4l9.8-6.8C71.5,98.7,68.6,99.1,65.6,99.2z" fill="#3B97D3"/><path d="M90.9,68c-3.7-1-16.5-4.2-16.5-4.2S71,81.1,67,81.1h-4.9c-3.6,0-6.4-15.5-7.3-17.3c0,0-12.9,3.2-16.5,4.2  c-1.9,0.5-3,3-3.7,6.1c1,1.7,2.1,3.4,3.4,4.9c0.4-4.5,1.2-6.6,1.6-7.2c2.6-0.7,8.5-2.2,12.5-3.2c2.6,9.7,4.8,16.5,10.1,16.5H67  c4.8,0,7.2-5.8,9-11.5c0.5-1.7,1-3.5,1.4-5c3.9,1,9.7,2.5,12.2,3.1c0.4,0.5,1.1,2.3,1.5,5.9c1.2-1.6,2.2-3.2,3.1-5  C93.6,70.3,92.5,68.4,90.9,68z" fill="#3B97D3"/><path d="M97.4,31.9L97.4,31.9c0.5,0.7,0.9,1.3,1.4,1.9c0.1,0,0.2,0,0.3,0c2.4,0,6.5,0.6,7.4,4.9  c0.7,3-0.1,7.5-1.2,10.9c0.1,0.3,0.1,0.6,0.2,1l0,0l0.2,1.5c0,0.1,0,0.3,0,0.4l0,0.2c0.1,0.5,0.1,1.1,0.2,1.6c0,0.4,0.1,0.8,0.1,1.2  c0,0.4,0,0.7,0,1.1l0,0.3c0,0,0,0,0,0c0.2-0.3,0.5-0.7,0.8-1c2.3-3.4,4.9-12.1,3.6-17.9c-1.5-6.9-8.1-8-11.3-8c-0.9,0-2,0.1-3.2,0.3  C96.3,30.6,96.9,31.2,97.4,31.9z" fill="#2C3E50"/><path d="M23,49.1c-1-3-1.7-6.7-1.3-9.7c0.5-4,2.6-5.6,7.3-5.6c0.1,0,0.3,0,0.4,0c0.9-1.3,1.8-2.5,2.8-3.7  c-1.2-0.3-2.4-0.4-3.2-0.4c-3.9,0-10.3,0.9-11.3,9.1c-0.8,6.4,2.1,14.5,4.3,17.3c0.1,0.1,0.2,0.2,0.2,0.3  C22.2,53.9,22.5,51.5,23,49.1z" fill="#2C3E50"/><path d="M101.7,77h-0.6c-0.5,1-1.1,1.9-1.6,2.8l3.2,3.2c17.5-0.4,23.8-4.1,23.8-4.1c0-5.1-0.7-12.4-3.9-13.3  c-3.2-0.9-14.4-3.7-14.4-3.7S105.2,77,101.7,77z M110,70.6c0.4-1.3,0.8-2.7,1.1-3.8c3.3,0.8,7.7,2,9.9,2.5c0.4,0.7,1.1,2.7,1.3,6.9  c-2.6,0.9-7.7,2.1-16.2,2.6C107.9,76.9,109.1,73.7,110,70.6z" fill="#2C3E50"/><path d="M27,76.9c-2.9-1.2-5.2-13.5-5.9-14.9c0,0-11.2,2.8-14.4,3.6c-3.2,0.9-3.9,8.1-3.9,13.3c0,0,7,4.1,26.8,4.1  c0.5,0,0.9,0,1.4,0C29.5,81.1,28.1,79.1,27,76.9z M6.9,76.3c0.2-4.2,0.9-6.2,1.3-6.9c2.2-0.6,6.8-1.7,10.1-2.6  c1.2,4.7,2.6,9.4,4.8,12.1C14.6,78.4,9.5,77.1,6.9,76.3z" fill="#2C3E50"/><path d="M122.4,105.6L96.9,80.1c4.5-6.5,7.1-14.3,7.1-22.8c0-0.3,0-0.6,0-0.9c0-0.3,0-0.7,0-1c0-0.4,0-0.8-0.1-1.1  c0-0.5-0.1-1-0.2-1.5c0-0.2,0-0.4-0.1-0.5c0,0,0,0,0,0c-0.8-5.9-2.9-11.8-6.3-16.9c0,0,0,0,0,0c-0.5-0.7-0.9-1.4-1.5-2  c0,0,0,0-0.1-0.1c-1.1-1.4-2.2-2.7-3.5-4c-0.5-0.5-1-0.9-1.5-1.4c-0.1-0.1-0.2-0.2-0.3-0.3c-0.4-0.3-0.7-0.6-1.1-0.9  c-0.3-0.3-0.7-0.6-1-0.8c0,0,0,0-0.1,0c0,0,0,0,0,0c-6.7-5.2-15.2-8.3-24.3-8.3c-22,0-39.9,17.9-39.9,39.9c0,22,17.9,39.9,39.9,39.9  c8.5,0,16.4-2.7,22.9-7.2l25.5,25.5c1.4,1.4,3.2,2.1,5,2.1s3.6-0.7,5-2.1C125.1,112.8,125.1,108.4,122.4,105.6z M28.1,57.3  c0-19.8,16.1-35.9,35.9-35.9c8.3,0,16,2.9,22.1,7.6v0c0.1,0.1,0.1,0.1,0.2,0.2c3.4,2.7,6.4,6.1,8.6,9.9l0,0c1.5,2.5,2.6,5.1,3.4,7.8  c0,0,0,0,0,0c1.3,4.3,1.8,8.7,1.4,13.1h0C98.5,78.6,83,93.3,64.1,93.3C44.3,93.3,28.1,77.1,28.1,57.3z M119.6,112.7  c-0.6,0.6-1.3,0.9-2.1,0.9s-1.6-0.3-2.1-0.9L90.2,87.5c1.5-1.3,2.9-2.7,4.2-4.3l25.2,25.2C120.7,109.6,120.7,111.5,119.6,112.7z" fill="#2C3E50"/></svg>