<?xml version="1.0" ?><!DOCTYPE svg  PUBLIC '-//W3C//DTD SVG 1.1//EN'  'http://www.w3.org/Graphics/SVG/1.1/DTD/svg11.dtd'><svg enable-background="new 0 0 128 128" height="128px" id="Layer_1" version="1.1" viewBox="0 0 128 128" width="128px" xml:space="preserve" xmlns="http://www.w3.org/2000/svg" xmlns:xlink="http://www.w3.org/1999/xlink"><path d="M28.1,6.2c2.4,0,4.4,2,4.4,4.4s-2,4.4-4.4,4.4s-4.4-2-4.4-4.4S25.6,6.2,28.1,6.2 M28.1,2.2  c-4.6,0-8.4,3.8-8.4,8.4s3.8,8.4,8.4,8.4c4.6,0,8.4-3.8,8.4-8.4S32.7,2.2,28.1,2.2L28.1,2.2z" fill="#2C3E50"/><path d="M28.5,48.6c2.4,0,4.4,2,4.4,4.4s-2,4.4-4.4,4.4s-4.4-2-4.4-4.4S26.1,48.6,28.5,48.6 M28.5,44.6  c-4.6,0-8.4,3.8-8.4,8.4c0,4.6,3.8,8.4,8.4,8.4s8.4-3.8,8.4-8.4C36.9,48.3,33.2,44.6,28.5,44.6L28.5,44.6z" fill="#2C3E50"/><path d="M101.9,38.5c2.4,0,4.4,2,4.4,4.4s-2,4.4-4.4,4.4s-4.4-2-4.4-4.4S99.4,38.5,101.9,38.5 M101.9,34.5  c-4.6,0-8.4,3.8-8.4,8.4c0,4.6,3.8,8.4,8.4,8.4c4.6,0,8.4-3.8,8.4-8.4C110.3,38.3,106.5,34.5,101.9,34.5L101.9,34.5z" fill="#2C3E50"/><path d="M77.4,112c2.4,0,4.4,2,4.4,4.4s-2,4.4-4.4,4.4s-4.4-2-4.4-4.4S74.9,112,77.4,112 M77.4,108  c-4.6,0-8.4,3.8-8.4,8.4c0,4.6,3.8,8.4,8.4,8.4s8.4-3.8,8.4-8.4C85.8,111.7,82,108,77.4,108L77.4,108z" fill="#2C3E50"/><path d="M65.5,14.6c4,0,7.3,3.3,7.3,7.3s-3.3,7.3-7.3,7.3c-4,0-7.3-3.3-7.3-7.3S61.5,14.6,65.5,14.6 M65.5,10.6  c-6.3,0-11.3,5.1-11.3,11.3s5.1,11.3,11.3,11.3c6.3,0,11.3-5.1,11.3-11.3S71.8,10.6,65.5,10.6L65.5,10.6z" fill="#2C3E50"/><path d="M104.5,83.7c4,0,7.3,3.3,7.3,7.3s-3.3,7.3-7.3,7.3c-4,0-7.3-3.3-7.3-7.3S100.5,83.7,104.5,83.7 M104.5,79.7  c-6.3,0-11.3,5.1-11.3,11.3s5.1,11.3,11.3,11.3s11.3-5.1,11.3-11.3S110.8,79.7,104.5,79.7L104.5,79.7z" fill="#2C3E50"/><path d="M21.9,92.7c4,0,7.3,3.3,7.3,7.3s-3.3,7.3-7.3,7.3c-4,0-7.3-3.3-7.3-7.3S17.9,92.7,21.9,92.7 M21.9,88.7  c-6.3,0-11.3,5.1-11.3,11.3s5.1,11.3,11.3,11.3s11.3-5.1,11.3-11.3S28.2,88.7,21.9,88.7L21.9,88.7z" fill="#2C3E50"/><path d="M53.2,17l-18.6-5.7L34,13.2l18.6,5.7C52.7,18.2,52.9,17.6,53.2,17z" fill="#2C3E50"/><path d="M95,100.3l-12.8,11.2l1.3,1.5l13-11.4C95.9,101.2,95.4,100.7,95,100.3z" fill="#2C3E50"/><path d="M83.3,69.2C81,68.6,73,66.5,73,66.5v0l-6.2,5.7l-6.2-5.7c0,0-8.1,2-10.4,2.6s-2.8,5.9-2.8,9.6  c0,0,5,3,19.3,3c14.3,0,19.3-3,19.3-3C86.1,75.1,85.6,69.8,83.3,69.2z M66.8,79.8c-10,0-15.3-1.5-17.3-2.3c0.1-4.2,1-6.1,1.4-6.4  c1.7-0.5,7-1.8,9.2-2.3l6.7,6.2l6.7-6.3c2.3,0.6,7.5,1.9,9.3,2.4c0.4,0.2,1.2,2.2,1.3,6.4C82,78.3,76.8,79.8,66.8,79.8z" fill="#3B97D3"/><path d="M46.2,80.5L45,79.9v-0.3L29.4,94.6l1.5,1.5l16-15.2C46.5,80.6,46.2,80.5,46.2,80.5z" fill="#2C3E50"/><path d="M66.4,41.3c0.2,0-0.4,0,0.6,0V32h-2v9.4C65,41.3,65.9,41.3,66.4,41.3z" fill="#2C3E50"/><path d="M88,78c0,0.3,0,0.5,0,0.8v1.1l-0.4,0.3l8.6,6.8l1.2-1.6L88,78z" fill="#2C3E50"/><path d="M75.5,57.5l20.4-10.3L95,45.4l-18.9,9.5C75.9,55.8,75.7,56.6,75.5,57.5z" fill="#2C3E50"/><path d="M56.6,57.6l-19.8-3.4l-0.3,2l20.8,3.6C57,59.1,56.8,58.4,56.6,57.6z" fill="#2C3E50"/><path d="M74.1,49.1c-1.1-5-5.9-5.8-8.2-5.8c-2.8,0-7.4,0.6-8.2,6.6c-0.6,4.6,1.5,10.5,3.1,12.5  c1.7,2.2,3.3,3.3,5.5,3.3c2,0,3.4-1,5.2-3.6C73.2,59.6,75,53.3,74.1,49.1z M69.9,60.9c-1.8,2.6-2.6,2.8-3.5,2.8  c-1.2,0-2.2-0.4-3.9-2.5c-1.2-1.6-3.2-6.9-2.7-11c0.4-3.4,2.3-4.8,6.2-4.8c1.6,0,5.4,0.4,6.2,4.2C72.9,53.1,71.3,58.8,69.9,60.9z" fill="#3B97D3"/></svg>