<?xml version="1.0" ?><!DOCTYPE svg  PUBLIC '-//W3C//DTD SVG 1.1//EN'  'http://www.w3.org/Graphics/SVG/1.1/DTD/svg11.dtd'><svg enable-background="new 0 0 128 128" height="128px" id="Layer_1" version="1.1" viewBox="0 0 128 128" width="128px" xml:space="preserve" xmlns="http://www.w3.org/2000/svg" xmlns:xlink="http://www.w3.org/1999/xlink"><path d="M65.5,63.7h-1.8c-1,0-1.8,0.8-1.8,1.8v1.2c0,0.7,0.4,1.3,1,1.6l-0.8,9.8H67l-0.8-9.8c0.6-0.3,1-0.9,1-1.6  v-1.2C67.3,64.5,66.5,63.7,65.5,63.7L65.5,63.7z" fill="#3B97D3"/><path d="M52.1,67.6c2.6,9.7,4.8,16.5,10.1,16.5H67c4.8,0,7.2-5.8,9-11.5c0.5-1.7,1-3.5,1.4-5c3.9,1,9.7,2.5,12.2,3.1  c0.5,0.7,1.6,3.4,1.8,9.4L64.6,98.9L37.8,80.2c0.2-6.1,1.3-8.8,1.8-9.4C42.1,70.1,48.1,68.6,52.1,67.6 M74.4,62.8  c0,0-3.4,17.3-7.3,17.3h-4.9c-3.6,0-6.4-15.5-7.3-17.3c0,0-12.9,3.2-16.5,4.2c-3.7,1-4.5,9.4-4.5,15.3l30.8,21.4l30.8-21.4  c0-5.9-0.8-14.3-4.5-15.3C87.2,66,74.4,62.8,74.4,62.8L74.4,62.8z" fill="#2C3E50"/><path d="M63.9,29.7L63.9,29.7c2.9,0,8,0.8,9.1,6.1c1.1,5.4-1.4,14.3-3.5,17.5c-2.8,4.1-4,4.1-5,4.1  c-1.7,0-3.1-0.6-5.6-3.7c-1.8-2.4-4.9-10.8-4.1-16.9C55.5,31.8,58.1,29.7,63.9,29.7 M63.9,25.7c-4.5,0-11.8,1-13,10.5  C50,43.6,53.3,53,55.8,56.1c2.8,3.5,5.2,5.3,8.7,5.3c3.2,0,5.3-1.5,8.3-5.8c2.7-3.9,5.6-13.9,4.1-20.6C75.2,27,67.6,25.7,63.9,25.7  L63.9,25.7z" fill="#2C3E50"/><path d="M100.4,61.8h-1.5c-0.9,0-1.5,0.7-1.5,1.5v1c0,0.6,0.4,1.1,0.9,1.4l-0.7,8.5h4.2l-0.7-8.5  c0.5-0.2,0.9-0.8,0.9-1.4v-1C101.9,62.5,101.2,61.8,100.4,61.8L100.4,61.8z" fill="#3B97D3"/><path d="M99,32.8L99,32.8c2.4,0,6.5,0.6,7.4,4.9c1,4.5-1.1,12.1-3,14.8c-2.3,3.3-3.1,3.3-3.9,3.3  c-1.1,0-2.2-0.2-4.4-3c-1.6-2-4.1-9.1-3.5-14.3C92.2,34.3,94.2,32.8,99,32.8 M99,28.8c-3.9,0-10.3,0.9-11.3,9.1  c-0.8,6.4,2.1,14.5,4.3,17.3c2.4,3,4.6,4.6,7.6,4.6c2.7,0,4.6-1.3,7.2-5c2.3-3.4,4.9-12.1,3.6-17.9C108.8,29.8,102.2,28.8,99,28.8  L99,28.8z" fill="#2C3E50"/><path d="M30.4,60.8h-1.5c-0.9,0-1.5,0.7-1.5,1.5v1c0,0.6,0.4,1.1,0.9,1.4l-0.7,8.5h4.2L31,64.7  c0.5-0.2,0.9-0.8,0.9-1.4v-1C31.9,61.5,31.2,60.8,30.4,60.8L30.4,60.8z" fill="#3B97D3"/><path d="M29,32.8L29,32.8c2.4,0,6.5,0.6,7.4,4.9c1,4.5-1.1,12.1-3,14.8c-2.3,3.3-3.1,3.3-3.9,3.3  c-1.1,0-2.2-0.2-4.4-3c-1.6-2-4.1-9.1-3.5-14.3C22.2,34.3,24.2,32.8,29,32.8 M29,28.8c-3.9,0-10.3,0.9-11.3,9.1  c-0.8,6.4,2.1,14.5,4.3,17.3c2.4,3,4.6,4.6,7.6,4.6c2.7,0,4.6-1.3,7.2-5c2.3-3.4,4.9-12.1,3.6-17.9C38.8,29.8,32.2,28.8,29,28.8  L29,28.8z" fill="#2C3E50"/><path d="M91.4,65.1c0.3,0.1,0.6,0.2,0.9,0.4c-0.6-2.2-1-4-1.3-4.5c0,0-4,1-7.9,2C86.5,63.8,89.8,64.6,91.4,65.1z" fill="#2C3E50"/><path d="M122.5,64.6c-3.2-0.9-14.4-3.7-14.4-3.7S105.2,76,101.7,76h-4.2c-0.1,0-0.3,0-0.4-0.1  c0.2,1.8,0.3,3.8,0.3,6.1c0.7,0,1.5,0,2.2,0c19.8,0,26.8-4.1,26.8-4.1C126.4,72.8,125.7,65.5,122.5,64.6z M106.1,77.9  c1.8-2,3-5.1,3.9-8.2c0.4-1.3,0.8-2.7,1.1-3.8c3.3,0.8,7.7,2,9.9,2.5c0.4,0.7,1.1,2.7,1.3,6.9C119.7,76.1,114.6,77.4,106.1,77.9z" fill="#2C3E50"/><path d="M32.1,75.9C32,76,31.8,76,31.7,76h-4.2c-3.1,0-5.6-13.5-6.4-15c0,0-11.2,2.8-14.4,3.6  c-3.2,0.9-3.9,8.1-3.9,13.3c0,0,7,4.1,26.8,4.1c0.7,0,1.5,0,2.2,0C31.8,79.8,31.9,77.7,32.1,75.9z M6.9,75.3  c0.2-4.2,0.9-6.2,1.3-6.9c2.2-0.6,6.8-1.7,10.1-2.6c1.2,4.7,2.6,9.4,4.8,12.1C14.6,77.4,9.5,76.1,6.9,75.3z" fill="#2C3E50"/><path d="M37.8,65.1c1.6-0.4,5-1.3,8.3-2.1c-3.9-1-8-2-8-2s-0.4,1.9-1,4.4C37.3,65.2,37.5,65.1,37.8,65.1z" fill="#2C3E50"/></svg>